<?xml version="1.0" encoding="UTF-8" standalone="no"?>
<svg
   xmlns:dc="http://purl.org/dc/elements/1.1/"
   xmlns:cc="http://creativecommons.org/ns#"
   xmlns:rdf="http://www.w3.org/1999/02/22-rdf-syntax-ns#"
   xmlns:svg="http://www.w3.org/2000/svg"
   xmlns="http://www.w3.org/2000/svg"
   xmlns:sodipodi="http://sodipodi.sourceforge.net/DTD/sodipodi-0.dtd"
   xmlns:inkscape="http://www.inkscape.org/namespaces/inkscape"
   version="1.1"
   width="340.1575"
   height="340.1575"
   id="svg36"
   viewBox="0 0 340.1575 340.1575"
   sodipodi:docname="radio_corel.cdr">
  <metadata
     id="metadata42">
    <rdf:RDF>
      <cc:Work
         rdf:about="">
        <dc:format>image/svg+xml</dc:format>
        <dc:type
           rdf:resource="http://purl.org/dc/dcmitype/StillImage" />
      </cc:Work>
    </rdf:RDF>
  </metadata>
  <defs
     id="defs40" />
  <sodipodi:namedview
     pagecolor="#ffffff"
     bordercolor="#666666"
     borderopacity="1"
     objecttolerance="10"
     gridtolerance="10"
     guidetolerance="10"
     inkscape:pageopacity="0"
     inkscape:pageshadow="2"
     inkscape:window-width="640"
     inkscape:window-height="480"
     id="namedview38" />
  <path
     d="M -0.0712,340.234 V 0.0765 H 340.086 V 340.234 Z"
     style="fill:#3f51b5;fill-rule:evenodd"
     id="path2" />
  <path
     d="m 280.5197,91.1018 c -0.3467,0 -0.7,-0.0464 -1.0555,-0.1391 L 139.3103,53.863 c -2.2015,-0.5852 -3.513,-2.8396 -2.9301,-5.041 0.5807,-2.2015 2.8197,-3.513 5.041,-2.9301 l 140.1539,37.0997 c 2.2015,0.5851 3.513,2.8395 2.9301,5.041 -0.4902,1.8503 -2.1595,3.0714 -3.9855,3.0714 z"
     style="fill:#231f20;fill-opacity:0;fill-rule:evenodd"
     id="path4" />
  <path
     d="M 275.0305,74.6518 136.1638,37.8943"
     style="fill:none;stroke:#ededed;stroke-width:1.5001;stroke-linecap:round;stroke-linejoin:miter;stroke-dasharray:none"
     id="path6" />
  <path
     d="m 286.7133,209.0206 c 0,6.4564 -5.2287,11.6851 -11.685,11.6851 H 64.7112 c -6.4564,0 -11.685,-5.2287 -11.685,-11.6851 V 92.1771 c 0,-6.4564 5.2286,-11.685 11.685,-11.685 h 210.3171 c 6.4563,0 11.685,5.2286 11.685,11.685 z"
     style="fill:#231f20;fill-opacity:0;fill-rule:evenodd"
     id="path8" />
  <path
     d="m 286.7133,197.3378 c 0,6.4564 -5.2287,11.6851 -11.685,11.6851 H 64.7112 c -6.4564,0 -11.685,-5.2287 -11.685,-11.6851 V 80.4943 c 0,-6.4564 5.2286,-11.685 11.685,-11.685 h 210.3171 c 6.4563,0 11.685,5.2286 11.685,11.685 z"
     style="fill:#ededed;fill-rule:evenodd"
     id="path10" />
  <path
     d="m 169.8719,138.9139 a 46.7368,46.7368 0 0 1 -46.7367,46.7367 46.7368,46.7368 0 1 1 46.7367,-46.7367 z"
     style="fill:#3f51b5;fill-rule:evenodd"
     id="path12" />
  <path
     d="m 123.1341,103.8621 c 23.8293,0 43.4545,17.8477 46.3338,40.8954 0.2384,-1.9166 0.404,-3.8619 0.404,-5.8425 0,-25.81 -20.9257,-46.7379 -46.7378,-46.7379 -25.81,0 -46.7379,20.9257 -46.7379,46.7379 0,1.9806 0.1634,3.9259 0.4041,5.8425 2.8793,-23.0477 22.5045,-40.8954 46.3338,-40.8954 z"
     style="fill:#231f20;fill-opacity:0;fill-rule:evenodd"
     id="path14" />
  <path
     d="m 204.9248,182.7316 a 8.7638,8.7638 0 0 1 -8.7638,8.7637 8.7638,8.7638 0 1 1 8.7638,-8.7637 z"
     style="fill:#231f20;fill-opacity:0;fill-rule:evenodd"
     id="path16" />
  <path
     d="m 234.1351,182.7316 a 8.7638,8.7638 0 0 1 -8.7638,8.7637 8.7638,8.7638 0 1 1 8.7638,-8.7637 z"
     style="fill:#231f20;fill-opacity:0;fill-rule:evenodd"
     id="path18" />
  <path
     d="m 263.3454,182.7316 a 8.7638,8.7638 0 0 1 -8.7637,8.7637 8.7638,8.7638 0 1 1 8.7637,-8.7637 z"
     style="fill:#231f20;fill-opacity:0;fill-rule:evenodd"
     id="path20" />
  <path
     d="m 204.9248,176.8891 a 8.7638,8.7638 0 0 1 -8.7638,8.7637 8.7638,8.7638 0 1 1 8.7638,-8.7637 z"
     style="fill:#3f51b5;fill-rule:evenodd"
     id="path22" />
  <path
     d="m 234.1351,176.8891 a 8.7638,8.7638 0 0 1 -8.7638,8.7637 8.7638,8.7638 0 1 1 8.7638,-8.7637 z"
     style="fill:#3f51b5;fill-rule:evenodd"
     id="path24" />
  <path
     d="m 263.3454,176.8891 a 8.7638,8.7638 0 0 1 -8.7637,8.7637 8.7638,8.7638 0 1 1 8.7637,-8.7637 z"
     style="fill:#3f51b5;fill-rule:evenodd"
     id="path26" />
  <path
     d="m 263.3454,138.915 c 0,6.4563 -5.2286,11.685 -11.685,11.685 h -52.5803 c -6.4564,0 -11.6851,-5.2287 -11.6851,-11.685 v -29.2104 c 0,-6.4563 5.2287,-11.685 11.6851,-11.685 h 52.5803 c 6.4564,0 11.685,5.2287 11.685,11.685 z"
     style="fill:#3548a3;fill-rule:evenodd"
     id="path28" />
  <path
     d="m 251.6604,98.0218 h -52.5803 c -6.4564,0 -11.6851,5.2287 -11.6851,11.685 v 11.685 c 0,-6.4563 5.2287,-11.685 11.6851,-11.685 h 52.5803 c 6.4564,0 11.685,5.2287 11.685,11.685 v -11.685 c 0,-6.4563 -5.2286,-11.685 -11.685,-11.685 z"
     style="fill:#231f20;fill-opacity:0;fill-rule:evenodd"
     id="path30" />
  <path
     d="m 77.6934,290.4381 v -58.2645 h 12.7063 v 25.8095 l 25.6028,-25.8095 h 17.0294 l -23.6747,22.69 24.9015,35.5745 h -16.387 l -17.263,-27.3555 -10.209,9.7379 v 17.6176 z m 63.1086,0 v -58.2645 h 26.6833 c 6.7037,0 11.5821,0.529 14.6197,1.5733 3.0524,1.0442 5.4768,2.9024 7.3026,5.574 1.8255,2.6856 2.7457,5.7371 2.7457,9.182 0,4.3807 -1.3729,7.9883 -4.1332,10.8363 -2.7604,2.8482 -6.8789,4.6383 -12.3704,5.3844 2.7312,1.4783 4.9802,3.1059 6.7473,4.8824 1.7818,1.7767 4.1771,4.9368 7.1858,9.4666 l 7.653,11.3655 h -15.1452 l -9.0845,-12.7216 c -3.257,-4.5165 -5.4916,-7.3644 -6.7037,-8.5445 -1.1976,-1.1662 -2.4681,-1.98 -3.812,-2.414 -1.3584,-0.434 -3.4906,-0.6511 -6.4114,-0.6511 h -2.5707 v 24.3312 z m 12.7063,-33.6079 h 9.3767 c 6.0755,0 9.858,-0.244 11.3771,-0.7188 1.5041,-0.4748 2.702,-1.302 3.549,-2.4684 0.8617,-1.1665 1.2852,-2.6312 1.2852,-4.3807 0,-1.9667 -0.5695,-3.5399 -1.6943,-4.7605 -1.1245,-1.207 -2.7164,-1.9664 -4.761,-2.2785 -1.0372,-0.1355 -4.1188,-0.2032 -9.2452,-0.2032 h -9.8875 z m 50.5774,33.6079 v -58.2645 h 26.6834 c 6.7036,0 11.582,0.529 14.6197,1.5733 3.0523,1.0442 5.4768,2.9024 7.3026,5.574 1.8255,2.6856 2.7456,5.7371 2.7456,9.182 0,4.3807 -1.3728,7.9883 -4.1332,10.8363 -2.7604,2.8482 -6.8788,4.6383 -12.3704,5.3844 2.7312,1.4783 4.9802,3.1059 6.7473,4.8824 1.7819,1.7767 4.1772,4.9368 7.1859,9.4666 l 7.6529,11.3655 h -15.1452 l -9.0842,-12.7216 c -3.2573,-4.5165 -5.4915,-7.3644 -6.7039,-8.5445 -1.1977,-1.1662 -2.4682,-1.98 -3.8121,-2.414 -1.3583,-0.434 -3.4905,-0.6511 -6.4114,-0.6511 h -2.5704 v 24.3312 z m 12.7066,-33.6079 h 9.3764 c 6.0755,0 9.8581,-0.244 11.3772,-0.7188 1.5043,-0.4748 2.7019,-1.302 3.5489,-2.4684 0.8621,-1.1665 1.2853,-2.6312 1.2853,-4.3807 0,-1.9667 -0.5695,-3.5399 -1.6943,-4.7605 -1.1245,-1.207 -2.7164,-1.9664 -4.7608,-2.2785 -1.0375,-0.1355 -4.119,-0.2032 -9.2455,-0.2032 h -9.8872 z"
     style="fill:#ededed;fill-rule:evenodd"
     id="path32" />
  <path
     d="m 148.0652,140.2343 a 24.7688,24.7688 0 0 1 -24.7688,24.7688 24.7688,24.7688 0 1 1 24.7688,-24.7688 z"
     style="fill:#ededed;fill-rule:evenodd"
     id="path34" />
</svg>
